<svg xmlns="http://www.w3.org/2000/svg" viewBox="0 0 680 830" font-family="system-ui,-apple-system,'Segoe UI',sans-serif">
<defs>
  <marker id="ah" markerWidth="7" markerHeight="5" refX="6" refY="2.5" orient="auto"><path d="M0,0 L7,2.5 L0,5Z" fill="#999"/></marker>
  <filter id="ds"><feDropShadow dx="0" dy="1" stdDeviation="1.5" flood-opacity=".05"/></filter>
</defs>

<!-- ═══ L1 客户端层 ═══ -->
<rect x="18" y="10" width="644" height="102" rx="12" fill="#EEEDFE" stroke="#534AB7" stroke-opacity=".2" stroke-width=".5"/>
<path d="M30,10H650a12,12,0,0,1,12,12V42H18V22A12,12,0,0,1,30,10Z" fill="#534AB7"/>
<text x="340" y="30" text-anchor="middle" font-size="13" font-weight="700" fill="#fff">客户端层 · Client</text>

<g onclick="sendPrompt('详细说明 CLI入口 的职责与接口')" cursor="pointer">
  <rect x="38" y="54" width="270" height="48" rx="8" fill="#fff" stroke="#534AB7" stroke-width=".5" filter="url(#ds)"/>
  <text x="173" y="74" text-anchor="middle" font-size="12" font-weight="600" fill="#333">CLI入口</text>
  <text x="173" y="90" text-anchor="middle" font-size="10" fill="#999">Typer 0.15</text>
</g>
<g onclick="sendPrompt('详细说明 API服务 的职责与接口')" cursor="pointer">
  <rect x="372" y="54" width="270" height="48" rx="8" fill="#fff" stroke="#534AB7" stroke-width=".5" filter="url(#ds)"/>
  <text x="507" y="74" text-anchor="middle" font-size="12" font-weight="600" fill="#333">API服务</text>
  <text x="507" y="90" text-anchor="middle" font-size="10" fill="#999">FastAPI</text>
</g>

<!-- ═══ L2 接入层 ═══ -->
<rect x="18" y="126" width="644" height="102" rx="12" fill="#E6F1FB" stroke="#185FA5" stroke-opacity=".2" stroke-width=".5"/>
<path d="M30,126H650a12,12,0,0,1,12,12V158H18V138A12,12,0,0,1,30,126Z" fill="#185FA5"/>
<text x="340" y="146" text-anchor="middle" font-size="13" font-weight="700" fill="#fff">接入层 · Gateway</text>

<g onclick="sendPrompt('详细说明 REST路由 的职责与接口')" cursor="pointer">
  <rect x="38" y="170" width="184" height="48" rx="8" fill="#fff" stroke="#185FA5" stroke-width=".5" filter="url(#ds)"/>
  <text x="130" y="190" text-anchor="middle" font-size="12" font-weight="600" fill="#333">REST路由</text>
  <text x="130" y="206" text-anchor="middle" font-size="10" fill="#999">/api/* 端点</text>
</g>
<g onclick="sendPrompt('详细说明 WebSocket 的职责与接口')" cursor="pointer">
  <rect x="248" y="170" width="184" height="48" rx="8" fill="#fff" stroke="#185FA5" stroke-width=".5" filter="url(#ds)"/>
  <text x="340" y="190" text-anchor="middle" font-size="12" font-weight="600" fill="#333">WebSocket</text>
  <text x="340" y="206" text-anchor="middle" font-size="10" fill="#999">实时推送</text>
</g>
<g onclick="sendPrompt('详细说明 事件总线 的职责与接口')" cursor="pointer">
  <rect x="458" y="170" width="184" height="48" rx="8" fill="#fff" stroke="#185FA5" stroke-width=".5" filter="url(#ds)"/>
  <text x="550" y="190" text-anchor="middle" font-size="12" font-weight="600" fill="#333">事件总线</text>
  <text x="550" y="206" text-anchor="middle" font-size="10" fill="#999">EventBus</text>
</g>

<!-- ═══ L3 业务层 ═══ -->
<rect x="18" y="242" width="644" height="276" rx="12" fill="#E1F5EE" stroke="#0F6E56" stroke-opacity=".2" stroke-width=".5"/>
<path d="M30,242H650a12,12,0,0,1,12,12V274H18V254A12,12,0,0,1,30,242Z" fill="#0F6E56"/>
<text x="340" y="262" text-anchor="middle" font-size="13" font-weight="700" fill="#fff">业务层 · Service</text>

<!-- Row 1: 编排引擎 -->
<text x="28" y="312" font-size="9" fill="#0F6E56" opacity=".5" writing-mode="tb">编排</text>
<g onclick="sendPrompt('详细说明 DAG执行器 的职责与接口')" cursor="pointer">
  <rect x="42" y="284" width="184" height="48" rx="8" fill="#fff" stroke="#0F6E56" stroke-width=".5" filter="url(#ds)"/>
  <text x="134" y="304" text-anchor="middle" font-size="12" font-weight="600" fill="#333">DAG执行器</text>
  <text x="134" y="320" text-anchor="middle" font-size="10" fill="#999">asyncio 并发</text>
</g>
<g onclick="sendPrompt('详细说明 导演模块 的职责与接口')" cursor="pointer">
  <rect x="248" y="284" width="184" height="48" rx="8" fill="#fff" stroke="#0F6E56" stroke-width=".5" filter="url(#ds)"/>
  <text x="340" y="304" text-anchor="middle" font-size="12" font-weight="600" fill="#333">导演模块</text>
  <text x="340" y="320" text-anchor="middle" font-size="10" fill="#999">LLM 规划</text>
</g>
<g onclick="sendPrompt('详细说明 剧本分镜 的职责与接口')" cursor="pointer">
  <rect x="454" y="284" width="184" height="48" rx="8" fill="#fff" stroke="#0F6E56" stroke-width=".5" filter="url(#ds)"/>
  <text x="546" y="304" text-anchor="middle" font-size="12" font-weight="600" fill="#333">剧本分镜</text>
  <text x="546" y="320" text-anchor="middle" font-size="10" fill="#999">DramaPlanner</text>
</g>

<!-- Row 2: 核心服务 -->
<text x="28" y="370" font-size="9" fill="#0F6E56" opacity=".5" writing-mode="tb">服务</text>
<g onclick="sendPrompt('详细说明 剧集管理 的职责与接口')" cursor="pointer">
  <rect x="42" y="342" width="140" height="48" rx="8" fill="#fff" stroke="#0F6E56" stroke-width=".5" filter="url(#ds)"/>
  <text x="112" y="362" text-anchor="middle" font-size="12" font-weight="600" fill="#333">剧集管理</text>
  <text x="112" y="378" text-anchor="middle" font-size="10" fill="#999">DramaManager</text>
</g>
<g onclick="sendPrompt('详细说明 成本追踪 的职责与接口')" cursor="pointer">
  <rect x="194" y="342" width="140" height="48" rx="8" fill="#fff" stroke="#0F6E56" stroke-width=".5" filter="url(#ds)"/>
  <text x="264" y="362" text-anchor="middle" font-size="12" font-weight="600" fill="#333">成本追踪</text>
  <text x="264" y="378" text-anchor="middle" font-size="10" fill="#999">CostTracker</text>
</g>
<g onclick="sendPrompt('详细说明 模型注册 的职责与接口')" cursor="pointer">
  <rect x="346" y="342" width="140" height="48" rx="8" fill="#fff" stroke="#0F6E56" stroke-width=".5" filter="url(#ds)"/>
  <text x="416" y="362" text-anchor="middle" font-size="12" font-weight="600" fill="#333">模型注册</text>
  <text x="416" y="378" text-anchor="middle" font-size="10" fill="#999">Singleton</text>
</g>
<g onclick="sendPrompt('详细说明 模型路由 的职责与接口')" cursor="pointer">
  <rect x="498" y="342" width="140" height="48" rx="8" fill="#fff" stroke="#0F6E56" stroke-width=".5" filter="url(#ds)"/>
  <text x="568" y="362" text-anchor="middle" font-size="12" font-weight="600" fill="#333">模型路由</text>
  <text x="568" y="378" text-anchor="middle" font-size="10" fill="#999">策略模式</text>
</g>

<!-- Row 3: 内容生成 -->
<text x="28" y="428" font-size="9" fill="#0F6E56" opacity=".5" writing-mode="tb">生成</text>
<g onclick="sendPrompt('详细说明 视频生成 的职责与接口')" cursor="pointer">
  <rect x="42" y="400" width="140" height="48" rx="8" fill="#fff" stroke="#0F6E56" stroke-width=".5" filter="url(#ds)"/>
  <text x="112" y="420" text-anchor="middle" font-size="12" font-weight="600" fill="#333">视频生成</text>
  <text x="112" y="436" text-anchor="middle" font-size="10" fill="#999">VideoGen</text>
</g>
<g onclick="sendPrompt('详细说明 TTS语音 的职责与接口')" cursor="pointer">
  <rect x="194" y="400" width="140" height="48" rx="8" fill="#fff" stroke="#0F6E56" stroke-width=".5" filter="url(#ds)"/>
  <text x="264" y="420" text-anchor="middle" font-size="12" font-weight="600" fill="#333">TTS语音</text>
  <text x="264" y="436" text-anchor="middle" font-size="10" fill="#999">EdgeTTS</text>
</g>
<g onclick="sendPrompt('详细说明 视觉审计 的职责与接口')" cursor="pointer">
  <rect x="346" y="400" width="140" height="48" rx="8" fill="#fff" stroke="#0F6E56" stroke-width=".5" filter="url(#ds)"/>
  <text x="416" y="420" text-anchor="middle" font-size="12" font-weight="600" fill="#333">视觉审计</text>
  <text x="416" y="436" text-anchor="middle" font-size="10" fill="#999">Claude Vision</text>
</g>
<g onclick="sendPrompt('详细说明 提示词增强 的职责与接口')" cursor="pointer">
  <rect x="498" y="400" width="140" height="48" rx="8" fill="#fff" stroke="#0F6E56" stroke-width=".5" filter="url(#ds)"/>
  <text x="568" y="420" text-anchor="middle" font-size="12" font-weight="600" fill="#333">提示词增强</text>
  <text x="568" y="436" text-anchor="middle" font-size="10" fill="#999">Seedance优化</text>
</g>

<!-- Row 4: 后期合成 -->
<text x="28" y="486" font-size="9" fill="#0F6E56" opacity=".5" writing-mode="tb">合成</text>
<g onclick="sendPrompt('详细说明 视频合成 的职责与接口')" cursor="pointer">
  <rect x="42" y="458" width="184" height="48" rx="8" fill="#fff" stroke="#0F6E56" stroke-width=".5" filter="url(#ds)"/>
  <text x="134" y="478" text-anchor="middle" font-size="12" font-weight="600" fill="#333">视频合成</text>
  <text x="134" y="494" text-anchor="middle" font-size="10" fill="#999">FFmpeg 封装</text>
</g>
<g onclick="sendPrompt('详细说明 字幕生成 的职责与接口')" cursor="pointer">
  <rect x="248" y="458" width="184" height="48" rx="8" fill="#fff" stroke="#0F6E56" stroke-width=".5" filter="url(#ds)"/>
  <text x="340" y="478" text-anchor="middle" font-size="12" font-weight="600" fill="#333">字幕生成</text>
  <text x="340" y="494" text-anchor="middle" font-size="10" fill="#999">SRT + ASS</text>
</g>
<g onclick="sendPrompt('详细说明 角色设计 的职责与接口')" cursor="pointer">
  <rect x="454" y="458" width="184" height="48" rx="8" fill="#fff" stroke="#0F6E56" stroke-width=".5" filter="url(#ds)"/>
  <text x="546" y="478" text-anchor="middle" font-size="12" font-weight="600" fill="#333">角色设计</text>
  <text x="546" y="494" text-anchor="middle" font-size="10" fill="#999">三视图</text>
</g>

<!-- ═══ L4 数据层 ═══ -->
<rect x="18" y="532" width="644" height="102" rx="12" fill="#EAF3DE" stroke="#3B6D11" stroke-opacity=".2" stroke-width=".5"/>
<path d="M30,532H650a12,12,0,0,1,12,12V564H18V544A12,12,0,0,1,30,532Z" fill="#3B6D11"/>
<text x="340" y="552" text-anchor="middle" font-size="13" font-weight="700" fill="#fff">数据层 · Data</text>

<g onclick="sendPrompt('详细说明 项目状态 的职责与接口')" cursor="pointer">
  <rect x="42" y="574" width="140" height="48" rx="8" fill="#fff" stroke="#3B6D11" stroke-width=".5" filter="url(#ds)"/>
  <text x="112" y="594" text-anchor="middle" font-size="12" font-weight="600" fill="#333">项目状态</text>
  <text x="112" y="610" text-anchor="middle" font-size="10" fill="#999">Pydantic</text>
</g>
<g onclick="sendPrompt('详细说明 剧集模型 的职责与接口')" cursor="pointer">
  <rect x="194" y="574" width="140" height="48" rx="8" fill="#fff" stroke="#3B6D11" stroke-width=".5" filter="url(#ds)"/>
  <text x="264" y="594" text-anchor="middle" font-size="12" font-weight="600" fill="#333">剧集模型</text>
  <text x="264" y="610" text-anchor="middle" font-size="10" fill="#999">JSON 持久化</text>
</g>
<g onclick="sendPrompt('详细说明 费用记录 的职责与接口')" cursor="pointer">
  <rect x="346" y="574" width="140" height="48" rx="8" fill="#fff" stroke="#3B6D11" stroke-width=".5" filter="url(#ds)"/>
  <text x="416" y="594" text-anchor="middle" font-size="12" font-weight="600" fill="#333">费用记录</text>
  <text x="416" y="610" text-anchor="middle" font-size="10" fill="#999">CostRecord</text>
</g>
<g onclick="sendPrompt('详细说明 DAG模型 的职责与接口')" cursor="pointer">
  <rect x="498" y="574" width="140" height="48" rx="8" fill="#fff" stroke="#3B6D11" stroke-width=".5" filter="url(#ds)"/>
  <text x="568" y="594" text-anchor="middle" font-size="12" font-weight="600" fill="#333">DAG模型</text>
  <text x="568" y="610" text-anchor="middle" font-size="10" fill="#999">TaskNode</text>
</g>

<!-- ═══ L5 基础设施 ═══ -->
<rect x="18" y="648" width="644" height="160" rx="12" fill="#F1EFE8" stroke="#5F5E5A" stroke-opacity=".2" stroke-width=".5"/>
<path d="M30,648H650a12,12,0,0,1,12,12V680H18V660A12,12,0,0,1,30,648Z" fill="#5F5E5A"/>
<text x="340" y="668" text-anchor="middle" font-size="13" font-weight="700" fill="#fff">基础设施 · Infrastructure</text>

<g onclick="sendPrompt('详细说明 Seedance 2.0 的职责与接口')" cursor="pointer">
  <rect x="38" y="690" width="184" height="48" rx="8" fill="#fff" stroke="#5F5E5A" stroke-width=".5" filter="url(#ds)"/>
  <text x="130" y="710" text-anchor="middle" font-size="12" font-weight="600" fill="#333">Seedance 2.0</text>
  <text x="130" y="726" text-anchor="middle" font-size="10" fill="#999">视频生成API</text>
</g>
<g onclick="sendPrompt('详细说明 LLM供应商 的职责与接口')" cursor="pointer">
  <rect x="248" y="690" width="184" height="48" rx="8" fill="#fff" stroke="#5F5E5A" stroke-width=".5" filter="url(#ds)"/>
  <text x="340" y="710" text-anchor="middle" font-size="12" font-weight="600" fill="#333">LLM供应商</text>
  <text x="340" y="726" text-anchor="middle" font-size="10" fill="#999">LiteLLM 多源</text>
</g>
<g onclick="sendPrompt('详细说明 Claude Vision 的职责与接口')" cursor="pointer">
  <rect x="458" y="690" width="184" height="48" rx="8" fill="#fff" stroke="#5F5E5A" stroke-width=".5" filter="url(#ds)"/>
  <text x="550" y="710" text-anchor="middle" font-size="12" font-weight="600" fill="#333">Claude Vision</text>
  <text x="550" y="726" text-anchor="middle" font-size="10" fill="#999">质量审计API</text>
</g>
<g onclick="sendPrompt('详细说明 Edge TTS 的职责与接口')" cursor="pointer">
  <rect x="38" y="748" width="184" height="48" rx="8" fill="#fff" stroke="#5F5E5A" stroke-width=".5" filter="url(#ds)"/>
  <text x="130" y="768" text-anchor="middle" font-size="12" font-weight="600" fill="#333">Edge TTS</text>
  <text x="130" y="784" text-anchor="middle" font-size="10" fill="#999">微软语音合成</text>
</g>
<g onclick="sendPrompt('详细说明 FFmpeg 的职责与接口')" cursor="pointer">
  <rect x="248" y="748" width="184" height="48" rx="8" fill="#fff" stroke="#5F5E5A" stroke-width=".5" filter="url(#ds)"/>
  <text x="340" y="768" text-anchor="middle" font-size="12" font-weight="600" fill="#333">FFmpeg</text>
  <text x="340" y="784" text-anchor="middle" font-size="10" fill="#999">视频处理引擎</text>
</g>
<g onclick="sendPrompt('详细说明 本地存储 的职责与接口')" cursor="pointer">
  <rect x="458" y="748" width="184" height="48" rx="8" fill="#fff" stroke="#5F5E5A" stroke-width=".5" filter="url(#ds)"/>
  <text x="550" y="768" text-anchor="middle" font-size="12" font-weight="600" fill="#333">本地存储</text>
  <text x="550" y="784" text-anchor="middle" font-size="10" fill="#999">文件系统</text>
</g>

<!-- ═══ 层间箭头 ═══ -->
<!-- L1 → L2 同步 -->
<line x1="340" y1="112" x2="340" y2="122" stroke="#999" stroke-width="1.2" marker-end="url(#ah)"/>
<!-- L2 → L3 异步 -->
<line x1="340" y1="228" x2="340" y2="238" stroke="#999" stroke-width="1.2" stroke-dasharray="4 3" marker-end="url(#ah)"/>
<!-- L3 → L4 同步 -->
<line x1="340" y1="518" x2="340" y2="528" stroke="#999" stroke-width="1.2" marker-end="url(#ah)"/>
<!-- L4 → L5 同步 -->
<line x1="340" y1="634" x2="340" y2="644" stroke="#999" stroke-width="1.2" marker-end="url(#ah)"/>

<!-- ═══ 跨层箭头（异步外部调用）═══ -->
<!-- 视频生成 → Seedance（左侧绕行） -->
<path d="M42,424 L14,424 Q10,424 10,428 L10,710 Q10,714 14,714 L38,714" fill="none" stroke="#bbb" stroke-width="1" stroke-dasharray="4 3" marker-end="url(#ah)"/>
<!-- 视觉审计 → Claude Vision（右侧绕行） -->
<path d="M486,424 L666,424 Q670,424 670,428 L670,710 Q670,714 666,714 L642,714" fill="none" stroke="#bbb" stroke-width="1" stroke-dasharray="4 3" marker-end="url(#ah)"/>

<!-- ═══ 图例 ═══ -->
<line x1="420" y1="818" x2="455" y2="818" stroke="#999" stroke-width="1.2"/>
<text x="460" y="821" font-size="9" fill="#999">同步调用</text>
<line x1="530" y1="818" x2="565" y2="818" stroke="#999" stroke-width="1.2" stroke-dasharray="4 3"/>
<text x="570" y="821" font-size="9" fill="#999">异步调用</text>

</svg>
